<svg
  viewBox="0 0 2400 160"
  preserveAspectRatio="none"
  xmlns="http://www.w3.org/2000/svg"
  aria-hidden="true"
>
  <!-- Ground base -->
  <g id="ground">
    <rect x="0" y="140" width="2400" height="20" fill="#EDE7DF"/>
    <path d="M0,142 Q50,140 100,141 Q150,139 200,140 Q250,141 300,139 Q350,140 400,141 Q450,139 500,140 Q550,141 600,140 Q650,139 700,141 Q750,140 800,139 Q850,141 900,140 Q950,139 1000,141 Q1050,140 1100,139 Q1150,141 1200,140 Q1250,139 1300,141 Q1350,140 1400,139 Q1450,141 1500,140 Q1550,139 1600,141 Q1650,140 1700,139 Q1750,141 1800,140 Q1850,139 1900,141 Q1950,140 2000,139 Q2050,141 2100,140 Q2150,139 2200,141 Q2250,140 2300,139 Q2350,141 2400,140 L2400,160 L0,160 Z" fill="#EDE7DF"/>
  </g>

  <!-- Palm trees -->
  <g id="palms">
    <!-- Left palm -->
    <path d="M38,140 L36,120 L34,105 L35,95 L36,85 Q36,82 34,78 Q30,72 22,68 Q18,66 12,66 Q16,64 22,64 Q28,62 32,58 Q28,54 22,52 Q18,50 14,51 Q18,48 24,48 Q30,48 34,52 Q36,48 38,42 Q40,36 38,30 Q42,36 42,42 Q44,48 42,52 Q46,48 52,48 Q58,48 62,51 Q58,50 54,52 Q48,54 44,58 Q48,62 54,64 Q60,64 64,66 Q58,66 52,68 Q46,72 42,78 Q40,82 40,85 L41,95 L42,105 L40,120 L38,140 Z" fill="#567A4D"/>
    <!-- Palm 2 -->
    <path d="M1528,140 L1526,125 L1524,112 L1525,102 L1526,92 Q1526,88 1524,84 Q1520,78 1512,74 Q1508,72 1502,72 Q1506,70 1512,70 Q1518,68 1522,64 Q1518,60 1512,58 Q1508,56 1504,57 Q1508,54 1514,54 Q1520,54 1524,58 Q1526,54 1528,48 Q1530,42 1528,36 Q1532,42 1532,48 Q1534,54 1532,58 Q1536,54 1542,54 Q1548,54 1552,57 Q1548,56 1544,58 Q1538,60 1534,64 Q1538,68 1544,70 Q1550,70 1554,72 Q1548,72 1542,74 Q1536,78 1532,84 Q1530,88 1530,92 L1531,102 L1532,112 L1530,125 L1528,140 Z" fill="#567A4D"/>
    <!-- Palm 3 -->
    <path d="M2168,140 L2166,125 L2164,112 L2165,100 L2166,90 Q2166,86 2164,82 Q2160,76 2152,72 Q2148,70 2142,70 Q2146,68 2152,68 Q2158,66 2162,62 Q2158,58 2152,56 Q2148,54 2144,55 Q2148,52 2154,52 Q2160,52 2164,56 Q2166,52 2168,46 Q2170,40 2168,34 Q2172,40 2172,46 Q2174,52 2172,56 Q2176,52 2182,52 Q2188,52 2192,55 Q2188,54 2184,56 Q2178,58 2174,62 Q2178,66 2184,68 Q2190,68 2194,70 Q2188,70 2182,72 Q2176,76 2172,82 Q2170,86 2170,90 L2171,100 L2172,112 L2170,125 L2168,140 Z" fill="#567A4D"/>
    <!-- Right palm -->
    <path d="M2368,140 L2366,125 L2364,110 L2365,100 L2366,90 Q2366,86 2364,82 Q2360,76 2352,72 Q2348,70 2342,70 Q2346,68 2352,68 Q2358,66 2362,62 Q2358,58 2352,56 Q2348,54 2344,55 Q2348,52 2354,52 Q2360,52 2364,56 Q2366,52 2368,46 Q2370,40 2368,34 Q2372,40 2372,46 Q2374,52 2372,56 Q2376,52 2382,52 Q2388,52 2392,55 Q2388,54 2384,56 Q2378,58 2374,62 Q2378,66 2384,68 Q2390,68 2394,70 Q2388,70 2382,72 Q2376,76 2372,82 Q2370,86 2370,90 L2371,100 L2372,110 L2370,125 L2368,140 Z" fill="#567A4D"/>
  </g>

  <!-- Mandap (primary) -->
  <g id="mandap">
    <path d="M478,140 L478,85 L474,82 L474,78 L480,76 L480,60 Q482,48 500,40 Q510,36 530,34 Q535,28 540,24 Q545,20 540,16 L542,14 L544,16 Q548,20 546,26 Q544,30 540,34 Q560,36 570,40 Q588,48 590,60 L590,76 L596,78 L596,82 L592,85 L592,140 L585,140 L585,90 L582,86 L582,140 L565,140 L565,80 L560,76 L555,80 L555,140 L515,140 L515,80 L510,76 L505,80 L505,140 L488,140 L488,86 L485,90 L485,140 Z M484,60 Q486,50 500,44 Q510,40 530,38 Q560,40 570,44 Q584,50 586,60 L586,68 Q584,58 570,50 Q560,46 540,44 Q510,46 500,50 Q486,58 484,68 Z M520,38 Q530,36 540,38 Q530,37 520,38 Z" fill="#D6B98C"/>
  </g>

  <!-- Mandap 2 (secondary pavilion) -->
  <g id="mandap-2">
    <path d="M1645,140 L1645,100 L1648,96 L1648,85 Q1650,72 1665,64 Q1680,58 1700,56 Q1720,58 1735,64 Q1750,72 1752,85 L1752,96 L1755,100 L1755,140 L1748,140 L1748,105 L1745,100 L1745,140 L1735,140 L1735,92 Q1725,82 1700,78 Q1675,82 1665,92 L1665,140 L1655,140 L1655,100 L1652,105 L1652,140 Z M1660,68 Q1680,60 1700,58 Q1720,60 1740,68 Q1720,62 1700,60 Q1680,62 1660,68 Z M1696,56 L1696,48 Q1698,42 1700,38 L1702,34 L1700,30 L1701,28 L1703,30 L1704,34 Q1702,38 1704,42 L1704,48 L1704,56 Z" fill="#D6B98C"/>
  </g>

  <!-- Tent -->
  <g id="tent">
    <path d="M625,140 L630,100 L635,85 Q640,72 655,62 Q665,56 680,52 Q690,48 690,42 L692,38 L694,42 Q694,48 704,52 Q720,56 730,62 Q745,72 750,85 L755,100 L760,140 Z M645,140 L650,105 Q655,90 670,78 Q680,72 690,70 Q700,72 710,78 Q725,90 730,105 L735,140 Z M665,140 L668,110 Q672,98 685,90 Q690,88 695,90 Q708,98 712,110 L715,140 Z M688,42 L688,36 L690,32 L692,28 L694,32 L696,36 L696,42 Z" fill="#F7F2EA"/>
  </g>

  <!-- Gates -->
  <g id="gate">
    <!-- Gate 1 -->
    <path d="M75,140 L75,95 L78,90 L78,85 Q78,75 85,70 L85,65 L80,60 L80,55 L85,55 L85,50 Q90,42 110,38 Q130,42 135,50 L135,55 L140,55 L140,60 L135,65 L135,70 Q142,75 142,85 L142,90 L145,95 L145,140 L135,140 L135,100 L130,95 L130,140 L120,140 L120,85 Q110,78 100,85 L100,140 L90,140 L90,95 L85,100 L85,140 Z M95,50 Q110,44 125,50 Q110,46 95,50 Z M100,55 Q110,52 120,55 L120,58 Q110,55 100,58 Z" fill="#D6B98C"/>
    <!-- Gate 2 -->
    <path d="M2245,140 L2245,100 L2248,96 L2248,88 Q2250,78 2260,72 Q2270,66 2280,64 Q2290,66 2300,72 Q2310,78 2312,88 L2312,96 L2315,100 L2315,140 L2308,140 L2308,105 L2305,100 L2305,140 L2295,140 L2295,88 Q2288,80 2280,78 Q2272,80 2265,88 L2265,140 L2255,140 L2255,100 L2252,105 L2252,140 Z M2275,64 Q2280,62 2285,64 L2285,60 Q2280,56 2275,60 Z" fill="#D6B98C"/>
  </g>

  <!-- Floral elements (gate + arches + small decorations) -->
  <g id="flowers">
    <!-- Floral gate -->
    <path d="M275,140 L275,100 L278,96 L278,90 Q280,80 290,74 Q300,68 320,65 Q340,68 350,74 Q360,80 362,90 L362,96 L365,100 L365,140 L358,140 L358,105 L355,100 L355,140 L345,140 L345,90 Q340,82 320,78 Q300,82 295,90 L295,140 L285,140 L285,100 L282,105 L282,140 Z M290,72 Q288,68 290,64 Q292,68 290,72 Z M300,68 Q298,64 300,60 Q302,64 300,68 Z M310,66 Q310,62 312,58 Q314,62 312,66 Z M320,64 Q320,60 322,56 Q324,60 322,64 Z M330,66 Q330,62 328,58 Q326,62 328,66 Z M340,68 Q342,64 340,60 Q338,64 340,68 Z M350,72 Q352,68 350,64 Q348,68 350,72 Z" fill="#E8C9C4"/>
    <!-- Flower arch 1 -->
    <path d="M385,140 L385,110 L388,105 Q392,88 410,78 Q420,74 430,78 Q448,88 452,105 L455,110 L455,140 L448,140 L448,112 Q446,95 430,85 Q420,80 410,85 Q394,95 392,112 L392,140 Z M400,82 Q398,78 400,74 Q402,78 400,82 Z M410,76 Q408,72 410,68 Q412,72 410,76 Z M420,74 Q418,70 420,66 Q422,70 420,74 Z M430,76 Q428,72 430,68 Q432,72 430,76 Z M440,82 Q438,78 440,74 Q442,78 440,82 Z M395,90 Q393,86 395,82 Q397,86 395,90 Z M445,90 Q443,86 445,82 Q447,86 445,90 Z" fill="#E8C9C4"/>
    <!-- Floral decoration cluster -->
    <path d="M1570,140 L1570,130 L1572,125 Q1574,120 1578,118 Q1582,116 1585,118 Q1588,116 1592,118 Q1596,120 1598,125 L1600,130 L1600,140 Z M1578,118 Q1576,114 1578,110 Q1580,106 1584,106 Q1588,106 1590,110 Q1592,114 1590,118 Z M1574,112 Q1570,110 1568,106 Q1570,104 1574,106 Z M1594,112 Q1598,110 1600,106 Q1598,104 1594,106 Z M1584,106 L1584,100 Q1582,96 1584,92 Q1586,96 1584,100 Z M1610,140 L1610,128 Q1612,122 1616,120 Q1618,118 1620,120 Q1622,118 1624,120 Q1628,122 1630,128 L1630,140 Z M1618,120 Q1616,116 1618,112 Q1620,108 1622,112 Q1624,116 1622,120 Z" fill="#E8C9C4"/>
    <!-- Flower arch 2 -->
    <path d="M2065,140 L2065,115 L2068,110 Q2072,94 2090,84 Q2100,80 2110,84 Q2128,94 2132,110 L2135,115 L2135,140 L2128,140 L2128,116 Q2125,100 2110,90 Q2100,86 2090,90 Q2075,100 2072,116 L2072,140 Z M2080,88 Q2078,84 2080,80 Q2082,84 2080,88 Z M2090,82 Q2088,78 2090,74 Q2092,78 2090,82 Z M2100,80 Q2098,76 2100,72 Q2102,76 2100,80 Z M2110,82 Q2108,78 2110,74 Q2112,78 2110,82 Z M2120,88 Q2118,84 2120,80 Q2122,84 2120,88 Z" fill="#E8C9C4"/>
    <!-- Small scattered flowers -->
    <circle cx="165" cy="138" r="2" fill="#D8A84A"/>
    <circle cx="168" cy="136" r="1.5" fill="#D8A84A"/>
    <circle cx="162" cy="137" r="1.5" fill="#D8A84A"/>
    <circle cx="420" cy="138" r="2" fill="#D8A84A"/>
    <circle cx="423" cy="136" r="1.5" fill="#D8A84A"/>
    <circle cx="417" cy="137" r="1.5" fill="#D8A84A"/>
    <circle cx="760" cy="138" r="2" fill="#D8A84A"/>
    <circle cx="763" cy="136" r="1.5" fill="#D8A84A"/>
    <circle cx="1145" cy="138" r="2" fill="#D8A84A"/>
    <circle cx="1148" cy="136" r="1.5" fill="#D8A84A"/>
    <circle cx="1560" cy="138" r="2" fill="#D8A84A"/>
    <circle cx="1563" cy="136" r="1.5" fill="#D8A84A"/>
    <circle cx="1870" cy="138" r="2" fill="#D8A84A"/>
    <circle cx="1867" cy="136" r="1.5" fill="#D8A84A"/>
    <circle cx="2060" cy="138" r="2" fill="#D8A84A"/>
    <circle cx="2057" cy="136" r="1.5" fill="#D8A84A"/>
    <circle cx="2240" cy="138" r="2" fill="#D8A84A"/>
    <circle cx="2237" cy="136" r="1.5" fill="#D8A84A"/>
  </g>

  <!-- Chandeliers + lanterns (lights) -->
  <g id="lights">
    <!-- Chandelier 1 -->
    <path d="M540,50 L540,54 Q536,56 534,60 Q532,64 534,68 Q536,72 540,72 Q544,72 546,68 Q548,64 546,60 Q544,56 540,54 Z M536,68 L534,72 L532,70 Z M544,68 L546,72 L548,70 Z M538,72 L537,76 Z M542,72 L543,76 Z M540,72 L540,78 Z" fill="#C9A35A"/>
    <!-- Chandelier 2 -->
    <path d="M1440,140 L1438,130 L1438,120 Q1432,118 1430,114 Q1428,110 1430,106 Q1432,102 1436,100 L1438,98 L1440,96 L1442,98 L1444,100 Q1448,102 1450,106 Q1452,110 1450,114 Q1448,118 1442,120 L1442,130 L1440,140 Z M1440,96 L1440,90 L1441,88 L1440,86 L1439,88 Z M1434,106 L1432,110 L1430,108 Z M1446,106 L1448,110 L1450,108 Z M1436,114 L1434,118 Z M1444,114 L1446,118 Z M1438,118 L1437,122 Z M1442,118 L1443,122 Z" fill="#C9A35A"/>
    <!-- Lantern 1 -->
    <path d="M170,140 L168,130 L166,125 Q164,118 166,112 Q168,108 170,106 Q172,108 174,112 Q176,118 174,125 L172,130 L170,140 Z M167,106 L173,106 L174,104 Q172,100 170,98 Q168,100 166,104 Z M169,98 L171,98 L171,92 L170,90 L169,92 Z" fill="#B98A3F"/>
    <!-- Lantern 2 -->
    <path d="M1405,140 L1403,130 L1401,124 Q1399,116 1401,110 Q1403,106 1405,104 Q1407,106 1409,110 Q1411,116 1409,124 L1407,130 L1405,140 Z M1402,104 L1408,104 L1409,102 Q1407,98 1405,96 Q1403,98 1401,102 Z M1404,96 L1406,96 L1406,90 L1405,88 L1404,90 Z" fill="#B98A3F"/>
    <!-- Lantern 3 -->
    <path d="M1950,140 L1948,132 L1946,126 Q1944,118 1946,112 Q1948,108 1950,106 Q1952,108 1954,112 Q1956,118 1954,126 L1952,132 L1950,140 Z M1947,106 L1953,106 L1954,104 Q1952,100 1950,98 Q1948,100 1946,104 Z M1949,98 L1951,98 L1951,92 L1950,90 L1949,92 Z" fill="#B98A3F"/>
  </g>

  <!-- Speakers -->
  <g id="speaker">
    <!-- Line array -->
    <path d="M925,140 L925,108 L928,105 L928,70 Q928,66 932,64 L932,60 L930,58 L932,56 L934,54 L936,56 L938,58 L936,60 L936,64 Q940,66 940,70 L940,105 L943,108 L943,140 Z M930,74 L938,74 L938,78 L930,78 Z M930,82 L938,82 L938,86 L930,86 Z M930,90 L938,90 L938,94 L930,94 Z M930,98 L938,98 L938,102 L930,102 Z" fill="#3A3A3A"/>
    <!-- DJ speakers -->
    <path d="M965,140 L965,110 L968,108 L968,90 Q968,84 975,82 Q980,80 985,82 Q992,84 992,90 L992,108 L995,110 L995,140 Z M972,92 Q978,88 985,88 Q992,88 988,92 Q985,94 980,94 Q975,94 972,92 Z Q972,96 980,98 Q988,96 988,100 Q985,102 980,102 Q975,102 972,100 Z M1000,140 L1000,115 L1002,112 L1002,98 Q1002,94 1006,92 L1008,90 L1010,92 Q1014,94 1014,98 L1014,112 L1016,115 L1016,140 Z M1004,100 L1012,100 L1012,104 L1004,104 Z M1004,106 L1012,106 L1012,110 L1004,110 Z" fill="#2E2E2E"/>
    <!-- Stage speakers -->
    <path d="M1980,140 L1980,120 L1984,118 L1984,105 Q1984,98 1990,95 Q1996,92 2005,92 Q2014,92 2020,95 Q2026,98 2026,105 L2026,118 L2030,120 L2030,140 Z M1988,105 Q1988,100 1994,97 Q2000,95 2005,95 Q2010,95 2016,97 Q2022,100 2022,105 L2022,114 Q2020,108 2014,105 Q2008,103 2005,103 Q2002,103 1996,105 Q1990,108 1988,114 Z M2035,140 L2035,125 L2037,122 L2037,108 Q2037,104 2041,102 L2043,100 L2045,102 Q2049,104 2049,108 L2049,122 L2051,125 L2051,140 Z M2039,110 L2047,110 L2047,114 L2039,114 Z M2039,116 L2047,116 L2047,120 L2039,120 Z" fill="#2E2E2E"/>
  </g>

  <!-- Moving head lights -->
  <g id="lights-moving">
    <path d="M878,140 L878,105 L876,102 L876,95 L880,92 L882,85 L884,80 L886,76 Q888,72 892,72 Q896,72 898,76 L900,80 L902,85 L904,92 L908,95 L908,102 L906,105 L906,140 Z M884,80 Q888,76 892,74 Q896,76 900,80 Q896,78 892,77 Q888,78 884,80 Z M880,95 L880,90 Q888,86 896,86 Q904,86 904,90 L904,95 Z" fill="#555555"/>
    <path d="M1778,140 L1778,112 L1776,108 L1776,100 L1780,96 L1782,88 L1786,80 Q1789,75 1793,75 Q1797,75 1800,80 L1804,88 L1806,96 L1810,100 L1810,108 L1808,112 L1808,140 Z M1786,80 Q1789,77 1793,76 Q1797,77 1800,80 Z M1780,100 Q1788,96 1796,96 Q1804,96 1806,100 Z M1788,76 L1785,70 Q1789,66 1793,66 Q1797,66 1801,70 L1798,76 Z" fill="#555555"/>
  </g>

  <!-- Stage + buffet -->
  <g id="stage">
    <path d="M775,140 L775,120 L780,118 L780,112 L785,110 L785,105 L790,105 L790,100 L795,100 L800,95 L810,92 L820,90 L830,92 L840,95 L845,100 L850,100 L850,105 L855,105 L855,110 L860,112 L860,118 L865,120 L865,140 Z M790,140 L790,124 L800,120 L815,118 L830,120 L850,124 L850,140 Z M808,92 L808,86 L810,82 L812,78 Q815,74 818,78 L820,82 L822,86 L822,92 Z M805,100 L805,96 Q815,92 825,96 L825,100 Z" fill="#8A6546"/>
  </g>

  <!-- Buffet counter -->
  <g id="buffet">
    <path d="M1035,140 L1035,118 L1040,116 L1040,112 L1130,112 L1130,116 L1135,118 L1135,140 Z M1045,112 L1045,108 Q1045,104 1050,104 L1065,104 Q1070,104 1070,108 L1070,112 Z M1080,112 L1080,106 Q1080,102 1085,102 L1095,102 Q1100,102 1100,106 L1100,112 Z M1108,112 L1108,108 Q1108,104 1112,104 L1122,104 Q1126,104 1126,108 L1126,112 Z M1050,104 L1050,100 L1052,98 Q1055,96 1058,98 L1060,100 L1065,100 L1065,104 Z M1085,102 L1085,96 Q1088,92 1092,92 Q1096,92 1098,96 L1098,102 Z" fill="#9B7452"/>
    <!-- Dining tables + chairs -->
    <path d="M1155,140 L1158,132 L1160,128 L1200,128 L1202,132 L1205,140 Z M1162,128 L1162,124 L1198,124 L1198,128 Z M1168,124 L1168,120 Q1168,118 1172,118 L1172,114 L1174,112 L1176,114 L1176,118 Q1180,118 1180,120 L1180,124 Z M1185,124 L1185,118 Q1185,116 1188,116 L1188,112 Q1190,110 1192,112 L1192,116 Q1195,116 1195,118 L1195,124 Z" fill="#C8B08C"/>
    <path d="M1218,140 L1218,132 L1220,130 L1220,126 Q1220,122 1224,120 L1224,110 Q1224,106 1228,106 L1230,106 Q1234,106 1234,110 L1234,120 Q1238,122 1238,126 L1238,130 L1240,132 L1240,140 Z M1245,140 L1245,132 L1247,130 L1247,126 Q1247,122 1251,120 L1251,110 Q1251,106 1255,106 L1257,106 Q1261,106 1261,110 L1261,120 Q1265,122 1265,126 L1265,130 L1267,132 L1267,140 Z" fill="#EFE6DA"/>
    <path d="M1875,140 L1878,132 L1880,128 L1920,128 L1922,132 L1925,140 Z M1882,128 L1882,124 L1918,124 L1918,128 Z M1890,124 L1890,118 Q1894,116 1898,118 L1898,124 Z M1905,124 L1905,116 Q1908,114 1912,116 L1912,124 Z" fill="#C8B08C"/>
  </g>

  <!-- Camera + photographer -->
  <g id="camera">
    <!-- Photographer -->
    <path d="M1292,140 L1288,140 L1286,132 L1284,128 L1282,118 L1284,112 L1286,108 Q1288,104 1290,102 L1290,98 Q1288,96 1288,92 Q1288,86 1292,84 Q1296,82 1298,84 Q1302,86 1302,92 Q1302,96 1300,98 L1300,102 Q1302,104 1304,108 L1306,112 L1308,118 L1306,128 L1304,132 L1302,140 Z M1300,104 L1304,102 L1310,100 L1314,98 L1316,96 L1316,92 L1318,90 L1320,88 L1322,88 L1322,92 Q1320,94 1318,96 L1316,100 L1314,102 L1310,104 L1306,106 Z M1316,90 L1314,86 L1316,84 L1322,84 L1324,86 L1322,90 Z" fill="#404040"/>
    <!-- Camera crane -->
    <path d="M1340,140 L1340,130 L1338,128 L1338,120 L1342,118 L1345,100 L1350,82 L1355,70 L1360,62 L1365,58 L1370,56 L1372,56 L1372,52 L1374,50 L1376,52 L1378,52 L1380,50 L1382,52 L1382,56 L1378,58 L1376,60 L1376,56 L1374,58 Q1370,62 1368,68 L1365,76 L1360,90 L1358,100 L1356,118 L1360,120 L1360,128 L1358,130 L1358,140 Z M1370,56 L1368,54 L1366,52 L1368,50 L1372,50 L1370,52 Z" fill="#404040"/>
  </g>

  <!-- Shehnai + dhol (instruments) -->
  <g id="instruments">
    <path d="M190,140 L192,130 L193,125 L194,118 Q194,114 196,110 L197,108 L198,110 L199,106 L200,102 Q202,98 206,96 Q210,94 214,96 Q212,92 214,88 L216,86 L218,88 Q220,92 218,96 Q215,100 212,102 L208,106 L206,110 L204,114 Q204,118 204,125 L205,130 L207,140 Z" fill="#8A6546"/>
    <path d="M230,140 L230,125 Q230,118 234,114 L234,110 L228,108 L228,104 L232,104 Q234,100 240,98 Q246,100 248,104 L252,104 L252,108 L246,110 L246,114 Q250,118 250,125 L250,140 Z M234,104 Q240,100 246,104 Q240,102 234,104 Z M226,106 L224,100 L226,98 L228,104 Z M254,106 L256,100 L254,98 L252,104 Z" fill="#8A6546"/>
    <path d="M2205,140 L2207,130 L2208,124 L2209,118 Q2209,114 2211,110 L2212,108 L2214,112 L2215,108 Q2217,102 2221,98 Q2225,95 2229,98 Q2227,94 2229,90 L2231,88 L2233,90 Q2235,94 2233,98 Q2230,102 2227,105 L2223,110 L2221,114 Q2219,118 2219,124 L2220,130 L2222,140 Z" fill="#8A6546"/>
  </g>

  <!-- Umbrellas -->
  <g id="umbrella">
    <path d="M1480,140 L1478,120 L1476,105 L1475,95 L1474,88 Q1462,84 1458,78 Q1456,74 1458,70 Q1462,66 1470,64 Q1478,62 1480,60 Q1482,62 1490,64 Q1498,66 1502,70 Q1504,74 1502,78 Q1498,84 1486,88 L1485,95 L1484,105 L1482,120 L1480,140 Z M1466,72 Q1470,68 1480,66 Q1490,68 1494,72 Q1490,70 1480,68 Q1470,70 1466,72 Z" fill="#E9DDD0"/>
    <path d="M1840,140 L1838,122 L1837,110 L1836,100 L1835,92 Q1823,88 1819,82 Q1817,78 1819,74 Q1823,70 1831,68 Q1838,66 1840,64 Q1842,66 1849,68 Q1857,70 1861,74 Q1863,78 1861,82 Q1857,88 1845,92 L1844,100 L1843,110 L1842,122 L1840,140 Z" fill="#E9DDD0"/>
  </g>
</svg>
